<?xml version="1.0" encoding="utf-8"?>
<!-- Generator: Adobe Illustrator 15.0.2, SVG Export Plug-In . SVG Version: 6.00 Build 0)  -->
<!DOCTYPE svg PUBLIC "-//W3C//DTD SVG 1.1//EN" "http://www.w3.org/Graphics/SVG/1.1/DTD/svg11.dtd">
<svg version="1.1" id="Layer_2" xmlns="http://www.w3.org/2000/svg" xmlns:xlink="http://www.w3.org/1999/xlink" x="0px" y="0px"
	 width="420px" height="76.993px" viewBox="0 0 420 76.993" enable-background="new 0 0 420 76.993" xml:space="preserve">
<g>
	<rect y="-0.246" fill="#F79433" width="420" height="74.246"/>
	<rect y="54" fill="#4E8DD8" width="420" height="23"/>
	<g>
		<path fill="#FFFFFF" d="M74.365,68.163c2.379-2.981,4.189-6.661,5.131-10.939C80.41,53.068,81,48.311,81,43.083V0H18v43.083
			c0,2.53,0.245,5.133,0.409,7.734c0.168,2.678,0.676,5.308,1.35,7.814c0.683,2.545,1.746,4.979,3.079,7.235
			c1.368,2.315,3.276,4.356,5.631,6.066c2.328,1.69,5.265,3.045,8.711,4.016C38.803,76.408,40.609,77,42.555,77h13.91
			c3.083,0,5.82-1.018,8.163-1.926C68.686,73.504,71.962,71.177,74.365,68.163z"/>
		<polygon fill="#FFFFFF" points="151,18 151,0 88,-0.021 88,18 110.334,18 110.354,77 128.354,77 128.334,18 		"/>
		<path fill="#FFFFFF" d="M229.753,38.499c0-21.224-17.046-38.492-38-38.492s-38,17.269-38,38.492c0,21.227,17.046,38.494,38,38.494
			S229.753,59.726,229.753,38.499z"/>
		<path fill="#FFFFFF" d="M269.219,49c9.755,0,17.248-1.989,22.27-6.155c5.107-4.234,7.697-10.532,7.697-18.841
			c0-3.135-0.394-5.739-1.171-8.158c-0.782-2.434-1.891-4.749-3.294-6.559c-1.407-1.811-3.11-3.328-5.065-4.526
			c-1.903-1.165-4.019-2.116-6.289-2.833c-2.247-0.709-4.658-1.216-7.167-1.502C273.727,0.145,271.165,0,268.584,0H239v77h18V49
			H269.219z"/>
		<rect x="305" fill="#FFFFFF" width="18" height="77"/>
		<polygon fill="#FFFFFF" points="362.936,0 333.343,77 409.529,77 378.159,0 		"/>
	</g>
</g>
</svg>
